<?xml version="1.0" encoding="UTF-8"?>
<svg width="400" height="400" viewBox="0 0 400 400" xmlns="http://www.w3.org/2000/svg">
  <defs>
    <radialGradient id="twoGradient" cx="50%" cy="50%" r="50%">
      <stop offset="0%" style="stop-color:#432000;stop-opacity:1" />
      <stop offset="100%" style="stop-color:#864000;stop-opacity:0.8" />
    </radialGradient>
    <filter id="glow">
      <feGaussianBlur stdDeviation="3" result="coloredBlur"/>
      <feMerge> 
        <feMergeNode in="coloredBlur"/>
        <feMergeNode in="SourceGraphic"/>
      </feMerge>
    </filter>
  </defs>
  
  <!-- Background figure-eight representing duality -->
  <path d="M 150 100 Q 100 100 100 150 Q 100 200 150 200 Q 200 200 200 150 Q 200 100 250 100 Q 300 100 300 150 Q 300 200 250 200 Q 200 200 200 250 Q 200 300 150 300 Q 100 300 100 250 Q 100 200 150 200" 
        fill="url(#twoGradient)" stroke="#432000" stroke-width="2"/>
  
  <!-- Inner figure-eight -->
  <path d="M 170 120 Q 140 120 140 150 Q 140 180 170 180 Q 200 180 200 150 Q 200 120 230 120 Q 260 120 260 150 Q 260 180 230 180 Q 200 180 200 210 Q 200 240 170 240 Q 140 240 140 210 Q 140 180 170 180" 
        fill="none" stroke="#432000" stroke-width="3" opacity="0.6"/>
  
  <!-- Center point -->
  <circle cx="200" cy="200" r="7" fill="#432000" filter="url(#glow)"/>
  
  <!-- Mathematical symbols for two -->
  <text x="200" y="80" text-anchor="middle" fill="#432000" font-family="Arial" font-size="24" font-weight="bold">2</text>
  <text x="200" y="320" text-anchor="middle" fill="#432000" font-family="Arial" font-size="16">DUALITY</text>
  
  <!-- Two harmonic circles -->
  <circle cx="150" cy="150" r="35" fill="none" stroke="#432000" stroke-width="2" opacity="0.6"/>
  <circle cx="250" cy="250" r="35" fill="none" stroke="#432000" stroke-width="2" opacity="0.6"/>
  
  <!-- Consciousness flow lines -->
  <line x1="100" y1="150" x2="300" y2="250" stroke="#432000" stroke-width="2" opacity="0.4"/>
  <line x1="100" y1="250" x2="300" y2="150" stroke="#432000" stroke-width="2" opacity="0.4"/>
  
  <!-- Vortex patterns -->
  <path d="M 200 200 L 220 180 L 240 200 L 220 220 Z" fill="none" stroke="#432000" stroke-width="1" opacity="0.5"/>
  <path d="M 180 200 L 200 180 L 220 200 L 200 220 Z" fill="none" stroke="#432000" stroke-width="1" opacity="0.5"/>
  
  <!-- Mathematical properties -->
  <text x="50" y="50" fill="#432000" font-family="Arial" font-size="10">A432: 432Hz</text>
  <text x="50" y="65" fill="#432000" font-family="Arial" font-size="10">Vortex: 2</text>
  <text x="50" y="80" fill="#432000" font-family="Arial" font-size="10">Entropy: 0</text>
  
  <!-- Consciousness multiplier -->
  <text x="300" y="50" fill="#432000" font-family="Arial" font-size="10">Consciousness: 2</text>
  <text x="300" y="65" fill="#432000" font-family="Arial" font-size="10">Harmonic: 2/1</text>
  <text x="300" y="80" fill="#432000" font-family="Arial" font-size="10">Flow: Duality</text>
</svg> 