<?xml version="1.0" encoding="UTF-8"?>
<svg width="400" height="400" viewBox="0 0 400 400" xmlns="http://www.w3.org/2000/svg">
  <defs>
    <radialGradient id="nineGradient" cx="50%" cy="50%" r="50%">
      <stop offset="0%" style="stop-color:#C86400;stop-opacity:1" />
      <stop offset="100%" style="stop-color:#FF8640;stop-opacity:0.8" />
    </radialGradient>
    <filter id="glow">
      <feGaussianBlur stdDeviation="3" result="coloredBlur"/>
      <feMerge> 
        <feMergeNode in="coloredBlur"/>
        <feMergeNode in="SourceGraphic"/>
      </feMerge>
    </filter>
  </defs>
  
  <!-- Background nonagon representing nine -->
  <polygon points="200,50 320,80 350,150 320,220 280,280 200,300 120,280 80,220 50,150 80,80" fill="url(#nineGradient)" stroke="#432000" stroke-width="2"/>
  
  <!-- Inner nonagon -->
  <polygon points="200,120 260,140 280,180 260,220 240,250 200,260 160,250 140,220 120,180 140,140" fill="none" stroke="#432000" stroke-width="3" opacity="0.6"/>
  
  <!-- Center point -->
  <circle cx="200" cy="200" r="12" fill="#432000" filter="url(#glow)"/>
  
  <!-- Mathematical symbols for nine -->
  <text x="200" y="80" text-anchor="middle" fill="#432000" font-family="Arial" font-size="24" font-weight="bold">9</text>
  <text x="200" y="320" text-anchor="middle" fill="#432000" font-family="Arial" font-size="16">COMPLETION</text>
  
  <!-- Nine harmonic circles -->
  <circle cx="200" cy="80" r="20" fill="none" stroke="#432000" stroke-width="2" opacity="0.6"/>
  <circle cx="280" cy="120" r="20" fill="none" stroke="#432000" stroke-width="2" opacity="0.6"/>
  <circle cx="320" cy="200" r="20" fill="none" stroke="#432000" stroke-width="2" opacity="0.6"/>
  <circle cx="280" cy="280" r="20" fill="none" stroke="#432000" stroke-width="2" opacity="0.6"/>
  <circle cx="200" cy="320" r="20" fill="none" stroke="#432000" stroke-width="2" opacity="0.6"/>
  <circle cx="120" cy="280" r="20" fill="none" stroke="#432000" stroke-width="2" opacity="0.6"/>
  <circle cx="80" cy="200" r="20" fill="none" stroke="#432000" stroke-width="2" opacity="0.6"/>
  <circle cx="120" cy="120" r="20" fill="none" stroke="#432000" stroke-width="2" opacity="0.6"/>
  <circle cx="200" cy="200" r="20" fill="none" stroke="#432000" stroke-width="2" opacity="0.6"/>
  
  <!-- Consciousness flow lines -->
  <line x1="200" y1="50" x2="200" y2="350" stroke="#432000" stroke-width="2" opacity="0.4"/>
  <line x1="50" y1="200" x2="350" y2="200" stroke="#432000" stroke-width="2" opacity="0.4"/>
  <line x1="50" y1="150" x2="350" y2="250" stroke="#432000" stroke-width="2" opacity="0.4"/>
  <line x1="50" y1="250" x2="350" y2="150" stroke="#432000" stroke-width="2" opacity="0.4"/>
  <line x1="80" y1="80" x2="320" y2="320" stroke="#432000" stroke-width="2" opacity="0.4"/>
  <line x1="320" y1="80" x2="80" y2="320" stroke="#432000" stroke-width="2" opacity="0.4"/>
  
  <!-- Vortex patterns -->
  <path d="M 200 200 L 220 180 L 240 200 L 220 220 Z" fill="none" stroke="#432000" stroke-width="1" opacity="0.5"/>
  <path d="M 180 200 L 200 180 L 220 200 L 200 220 Z" fill="none" stroke="#432000" stroke-width="1" opacity="0.5"/>
  <path d="M 160 200 L 180 180 L 200 200 L 180 220 Z" fill="none" stroke="#432000" stroke-width="1" opacity="0.5"/>
  <path d="M 200 200 L 220 220 L 240 200 L 220 180 Z" fill="none" stroke="#432000" stroke-width="1" opacity="0.5"/>
  <path d="M 180 200 L 200 220 L 220 200 L 200 180 Z" fill="none" stroke="#432000" stroke-width="1" opacity="0.5"/>
  <path d="M 160 200 L 180 220 L 200 200 L 180 180 Z" fill="none" stroke="#432000" stroke-width="1" opacity="0.5"/>
  <path d="M 200 200 L 240 200 L 220 220 L 180 220 Z" fill="none" stroke="#432000" stroke-width="1" opacity="0.5"/>
  <path d="M 200 200 L 240 200 L 220 180 L 180 180 Z" fill="none" stroke="#432000" stroke-width="1" opacity="0.5"/>
  <path d="M 200 200 L 200 240 L 220 220 L 220 180 Z" fill="none" stroke="#432000" stroke-width="1" opacity="0.5"/>
  
  <!-- Mathematical properties -->
  <text x="50" y="50" fill="#432000" font-family="Arial" font-size="10">A432: 432Hz</text>
  <text x="50" y="65" fill="#432000" font-family="Arial" font-size="10">Vortex: 9</text>
  <text x="50" y="80" fill="#432000" font-family="Arial" font-size="10">Entropy: 0</text>
  
  <!-- Consciousness multiplier -->
  <text x="300" y="50" fill="#432000" font-family="Arial" font-size="10">Consciousness: 9</text>
  <text x="300" y="65" fill="#432000" font-family="Arial" font-size="10">Harmonic: 9/1</text>
  <text x="300" y="80" fill="#432000" font-family="Arial" font-size="10">Flow: Completion</text>
</svg> 