<svg width="400" height="400" viewBox="0 0 400 400" xmlns="http://www.w3.org/2000/svg">
  <rect width="100%" height="100%" fill="#fff"/>
<path d="M 272.00 200.00 A 72.00 72.00 0 0 1 200.00 272.00" stroke="#f5b041" stroke-width="3" fill="none"/>
<path d="M 200.00 361.00 A 116.50 116.50 0 0 1 83.50 244.50" stroke="#f5b041" stroke-width="3" fill="none"/>
<path d="M -60.50 244.50 A 188.50 188.50 0 0 1 128.00 56.00" stroke="#f5b041" stroke-width="3" fill="none"/>
<path d="M 128.00 -177.00 A 305.00 305.00 0 0 1 433.00 128.00" stroke="#f5b041" stroke-width="3" fill="none"/>
<path d="M 809.99 128.00 A 493.50 493.50 0 0 1 316.50 621.50" stroke="#f5b041" stroke-width="3" fill="none"/>
<path d="M 316.50 1231.49 A 798.49 798.49 0 0 1 -481.99 433.00" stroke="#f5b041" stroke-width="3" fill="none"/>
<path d="M -1468.98 433.00 A 1291.99 1291.99 0 0 1 -177.00 -858.99" stroke="#f5b041" stroke-width="3" fill="none"/>
<path d="M -177.00 -2455.98 A 2090.48 2090.48 0 0 1 1913.48 -365.50" stroke="#f5b041" stroke-width="3" fill="none"/>
<path d="M 4497.46 -365.50 A 3382.47 3382.47 0 0 1 1114.99 3016.97" stroke="#f5b041" stroke-width="3" fill="none"/>
<path d="M 1114.99 7197.93 A 5472.95 5472.95 0 0 1 -4357.96 1724.98" stroke="#f5b041" stroke-width="3" fill="none"/>
<path d="M -11122.89 1724.98 A 8855.41 8855.41 0 0 1 -2267.48 -7130.43" stroke="#f5b041" stroke-width="3" fill="none"/>
<path d="M -2267.48 -18076.32 A 14328.36 14328.36 0 0 1 12060.89 -3747.96" stroke="#f5b041" stroke-width="3" fill="none"/>
</svg>